<svg xmlns="http://www.w3.org/2000/svg" viewBox="0 0 200 60">
  <rect width="200" height="60" rx="4" fill="#ffffff"/>
  <g transform="translate(5, 5) scale(0.95)">
    <svg width="190" height="50" viewBox="0 93 192 25" preserveAspectRatio="xMidYMid meet">
      <g fill-rule="evenodd" clip-rule="evenodd">
        <path d="M34.992 108.749l-1.325 4.023-9.468.137s-2.306-.971-1.423-3.375 2.796-8.095 2.796-8.095 1.865-4.072 6.476-4.17c4.611-.099 6.967 0 6.967 0l-1.374 3.973h-6.23l-2.65 7.458 6.231.049zM41.467 97.27h5.642L45 103.059h4.022l1.963-5.741h5.495l-5.201 15.454h-5.592l2.011-5.887h-3.875l-2.111 5.838h-5.494l5.249-15.453zM71.148 97.22H59.865l-5.298 15.526 5.494.026s.883-2.601 1.422-4.416c.54-1.815 1.129-1.324 1.129-1.227 0 .099 1.275 5.593 1.275 5.593h5.838l-1.619-6.23c3.336-.932 4.317-3.482 4.317-3.482 3.042-5.79-1.275-5.79-1.275-5.79zm-4.415 7.114l-3.778-.05 1.227-3.63h3.876l-1.325 3.68zM89.398 112.575l5.25-15.208h4.12l2.748 6.23s.49 1.03.883-.344c.393-1.373 1.865-5.887 1.865-5.887h5.494l-5.199 15.355h-4.121l-2.699-6.279s-.246-1.423-.981.736c-.736 2.158-1.914 5.593-1.914 5.593l-5.445.048v-.244h-.001zM174.492 101.047l1.324-3.729-7.139.049s-4.758.393-6.279 5.396c0 0-.539 1.913 2.158 3.385 2.699 1.473 3.582 1.865 3.582 1.865s.246.146.146.539c-.098.393-.146.49-.342.49h-7.262l-1.275 3.68h7.775s3.582-.294 5.348-3.336c1.766-3.041.516-4.17.516-4.17s.072-.344-1.473-1.178-4.047-2.109-4.047-2.109-.197-.098-.221-.417c-.025-.318.295-.466.516-.441s6.673-.024 6.673-.024zM177.117 97.318h12.805l-1.275 3.777h-3.68l-3.926 11.627h-5.592l3.875-11.48s.074-.171-.221-.171h-3.336l1.35-3.753zM89.202 97.318s-5.053-.441-8.537.049c-3.482.49-5.249 3.68-5.249 3.68l-2.109 5.74-1.08 3.188c-.294 3.483 2.012 2.698 8.095 2.797 6.083.098 7.555-4.317 7.555-4.317s2.846-7.457 2.993-9.125-1.668-2.012-1.668-2.012zm-7.064 11.725l-3.925-.025 2.748-8.068h3.974l-2.797 8.093zM125.334 97.27s-5.053-.441-8.537.049c-3.482.49-5.248 3.68-5.248 3.68l-2.109 5.74-1.08 3.188c-.295 3.483 2.012 2.698 8.096 2.796 6.082.098 7.555-4.316 7.555-4.316s2.846-7.457 2.992-9.125c.145-1.67-1.669-2.012-1.669-2.012zm-7.064 11.724l-3.924-.049 2.746-8.046h3.975l-2.797 8.095zM159.773 97.27s-5.053-.441-8.537.049c-3.482.49-5.248 3.68-5.248 3.68l-2.109 5.74-1.08 3.188c-.293 3.483 2.012 2.698 8.096 2.796s7.555-4.316 7.555-4.316 2.846-7.457 2.992-9.125c.148-1.67-1.669-2.012-1.669-2.012zm-7.064 11.724l-3.924-.049 2.746-8.046h3.975l-2.797 8.095zM142.432 97.318h-11.529l-5.25 15.404h5.545l1.275-3.68h3.385c3.924-.343 4.66-1.569 5.643-2.551.98-.981 1.619-3.091 1.619-3.091 2.894-5.984-.688-6.082-.688-6.082zm-5.299 8.193h-3.482l1.717-4.758h3.385l-1.62 4.758z" fill="#295ba7"/>
      </g>
    </svg>
  </g>
</svg>
